<svg class="icon" style="width: 1.0009765625em;height: 1em;vertical-align: middle;fill: currentColor;overflow: hidden;" viewBox="0 0 1025 1024" version="1.1" xmlns="http://www.w3.org/2000/svg" p-id="3172"><path d="M928.034999 416.018999c-28.415112 0-53.950314 12.351614-71.549764 31.999l-189.946064 0 134.299803-134.299803c26.303178 1.471954 53.11834-7.839755 73.213712-27.967126 37.502828-37.502828 37.502828-98.268929 0-135.771757s-98.268929-37.502828-135.771757 0c-20.095372 20.095372-29.407081 46.910534-27.967126 73.213712l-134.299803 134.299803 0-189.946064c19.647386-17.567451 31.999-43.102653 31.999-71.549764 0-53.022343-42.974657-95.997-95.997-95.997s-95.997 42.974657-95.997 95.997c0 28.415112 12.351614 53.950314 31.999 71.549764l0 189.946064-134.299803-134.299803c1.439955-26.303178-7.839755-53.11834-27.967126-73.213712-37.502828-37.502828-98.268929-37.502828-135.771757 0s-37.502828 98.268929 0 135.771757c20.095372 20.095372 46.910534 29.407081 73.213712 27.967126l134.299803 134.299803-189.946064 0c-17.567451-19.647386-43.102653-31.999-71.549764-31.999-53.022343 0-95.997 42.974657-95.997 95.997s42.974657 95.997 95.997 95.997c28.415112 0 53.950314-12.351614 71.549764-31.999l189.946064 0-134.299803 134.299803c-26.303178-1.471954-53.11834 7.839755-73.213712 27.967126-37.502828 37.502828-37.502828 98.268929 0 135.771757s98.268929 37.502828 135.771757 0c20.095372-20.095372 29.407081-46.910534 27.967126-73.213712l134.299803-134.299803 0 189.946064c-19.647386 17.567451-31.999 43.102653-31.999 71.517765 0 53.022343 42.974657 95.997 95.997 95.997s95.997-42.974657 95.997-95.997c0-28.415112-12.351614-53.950314-31.999-71.549764l0-189.946064 134.299803 134.299803c-1.471954 26.303178 7.839755 53.11834 27.967126 73.213712 37.502828 37.502828 98.268929 37.502828 135.771757 0s37.502828-98.268929 0-135.771757c-20.095372-20.095372-46.910534-29.407081-73.213712-27.967126l-134.299803-134.299803 189.946064 0c17.567451 19.647386 43.102653 31.999 71.517765 31.999 53.022343 0 95.997-42.974657 95.997-95.997s-42.974657-95.997-95.997-95.997z" fill="#444444" p-id="3173"></path></svg>